<svg xmlns="http://www.w3.org/2000/svg" viewBox="0 0 512 512"><circle cx="256" cy="273.769" r="238.231" fill="#f68360"/><path d="M81.117 435.518C124.637 482.546 186.874 512 255.998 512c69.126 0 131.363-29.454 174.878-76.482H81.117z" fill="#ed6d47"/><path d="M445.298 370.739a8.377 8.377 0 0 1-2.47 5.945 8.376 8.376 0 0 1-5.944 2.467H75.112a8.38 8.38 0 0 1-5.947-2.467 8.394 8.394 0 0 1-2.467-5.945v-25.243h378.6v25.243z" fill="#fff"/><path d="M445.298 103.085a8.378 8.378 0 0 0-2.47-5.944 8.35 8.35 0 0 0-5.944-2.465H75.112a8.353 8.353 0 0 0-5.947 2.465 8.385 8.385 0 0 0-2.467 5.944v242.412h378.6V103.085z" fill="#232e38"/><path fill="#fff" d="M85.63 113.604h340.736v212.962H85.63z"/><path fill="#f2f2f2" d="M308.585 429.631H203.412l5.714-50.48h93.748z"/><path d="M329.617 435.518h-147.24v-2.519c0-.866.33-1.724.992-2.379a3.335 3.335 0 0 1 2.378-.988h140.5c.858 0 1.726.33 2.379.988a3.32 3.32 0 0 1 .988 2.379v2.519h.003z" fill="#fff"/><path fill="#e6e5e5" d="M308.585 429.631l-5.711-50.48h-93.748l48.91 50.48z"/><path fill="#f2f2f2" d="M42.24 183.695L4.031 172.068l38.209-11.63z"/><path fill="#cccbca" d="M4.031 172.068l38.209 11.627v-7.313z"/><path fill="#ffd680" d="M42.24 160.437h426.074v23.258H42.24z"/><path fill="#ffb959" d="M42.24 176.384h426.074v7.313H42.24z"/><path fill="#353f49" d="M18.983 176.614l-14.952-4.546 14.952-4.572z"/><path fill="#232e38" d="M18.983 176.614l-14.952-4.546 14.952 1.688z"/><path fill="#f2f2f2" d="M468.299 160.437h13.497v23.258h-13.497z"/><path fill="#cccbca" d="M468.299 176.384h13.497v7.313h-13.497z"/><path d="M496.337 183.695c2.976 0 5.953-1.135 8.222-3.406a11.586 11.586 0 0 0 3.406-8.222c0-2.976-1.135-5.954-3.406-8.222a11.595 11.595 0 0 0-8.222-3.406h-14.533v23.258h14.533v-.002z" fill="#f68360"/><path d="M504.562 163.845c-1.322-1.321-2.891-2.209-4.549-2.763.396 1.193.645 2.426.645 3.671 0 2.977-1.138 5.953-3.408 8.222a11.593 11.593 0 0 1-8.221 3.405h-7.224v7.313h14.536c2.973 0 5.95-1.135 8.224-3.406a11.595 11.595 0 0 0 3.403-8.222 11.608 11.608 0 0 0-3.406-8.22z" fill="#ed6d47"/><path d="M507.966 279.731V230.53H4.031v49.202h503.935zM34.104 255.125a5.688 5.688 0 0 1-5.689 5.692 5.691 5.691 0 0 1-5.695-5.692 5.691 5.691 0 0 1 5.695-5.685 5.689 5.689 0 0 1 5.689 5.685z" fill="#474f59"/><path d="M11.491 272.535h1.346v7.197h-1.346zm16.255 0h1.345v7.197h-1.345zm16.256 0h1.346v7.197h-1.346zm16.263 0h1.346v7.197h-1.346zm16.249 0h1.348v7.197h-1.348zm16.248 0h1.349v7.197h-1.349zm16.264 0h1.349v7.197h-1.349zm16.263 0h1.348v7.197h-1.348zm16.249 0h1.348v7.197h-1.348zm16.263 0h1.346v7.197h-1.346zm16.249 0h1.351v7.197h-1.351zm16.248 0h1.349v7.197h-1.349zm16.249 0h1.357v7.197h-1.357zm16.263 0h1.357v7.197h-1.357zm16.249 0h1.354v7.197h-1.354zm16.263 0h1.357v7.197h-1.357zm16.249 0h1.355v7.197h-1.355zm16.263 0h1.354v7.197h-1.354zm16.264 0h1.354v7.197h-1.354zm16.248 0h1.348v7.197h-1.348zm16.264 0h1.349v7.197h-1.349zm16.233 0h1.346v7.197h-1.346zm16.264 0h1.348v7.197h-1.348zm16.263 0h1.348v7.197h-1.348zm16.264 0h1.346v7.197h-1.346zm16.263 0h1.346v7.197h-1.346zm16.249 0h1.348v7.197h-1.348zm16.248 0h1.348v7.197h-1.348zm16.264 0h1.343v7.197h-1.343zm16.248 0h1.348v7.197h-1.348zm16.264 0h1.346v7.197h-1.346zm-479.333 3.599h.898v3.595h-.898zm16.265 0h.901v3.595h-.901zm16.259 0h.898v3.595h-.898zm16.256 0h.899v3.595h-.899zm16.255 0h.896v3.595h-.896zm16.248 0h.899v3.595h-.899zm16.264 0h.901v3.595h-.901zm16.248 0h.893v3.595h-.893zm16.264 0h.899v3.595h-.899zm16.263 0h.898v3.595h-.898zm16.233 0h.899v3.595h-.899zm16.264 0h.908v3.595h-.908zm16.264 0h.897v3.595h-.897zm16.248 0h.905v3.595h-.905zm16.248 0h.907v3.595h-.907zm16.249 0h.907v3.595h-.907zm16.279 0h.902v3.595h-.902zm16.248 0h.899v3.595h-.899zm16.248 0h.904v3.595h-.904zm16.264 0h.899v3.595h-.899zm16.248 0h.899v3.595h-.899zm16.264 0h.899v3.595h-.899zm16.248 0h.899v3.595h-.899zm16.264 0h.896v3.595h-.896zm16.248 0h.899v3.595h-.899zm16.249 0h.899v3.595h-.899zm16.263 0h.896v3.595h-.896zm16.264 0h.899v3.595h-.899zm16.248 0h.899v3.595H475zm16.264 0h.899v3.595h-.899z" fill="#fff"/><path fill="#1c252c" d="M396.348 94.667l-2.108 18.931H117.755l-2.106-18.931z"/><path fill="#ccaa65" d="M389.037 160.437l-1.778 15.941H124.737l-1.779-15.941z"/><path fill="#cc9347" d="M387.259 176.378l-.806 7.311H125.544l-.807-7.311z"/><path fill="#cccbca" d="M386.453 183.689l-5.204 46.839H130.747l-5.203-46.839z"/><path fill="#393f47" d="M381.249 230.528l-5.461 49.203H136.209l-5.462-49.203z"/><path d="M375.788 279.731l-5.205 46.839h-229.17l-5.204-46.839zm18.452-166.133l-5.203 46.839H122.958l-5.203-46.839z" fill="#cccbca"/><path fill="#e6e5e5" d="M141.417 22.917h229.165v303.646H141.417z"/><path fill="#fff" d="M152.712 37.24h206.577v289.325H152.712z"/><path fill="#91d3d9" d="M141.417 0h229.165v11.46H141.417z"/><path fill="#e6e5e5" d="M141.417 11.46h229.165v11.457H141.417z"/><path fill="#fff" d="M161.28 14.898h189.455v4.581H161.28z"/><path fill="#f68360" d="M141.417 5.73h19.86v5.728h-19.86z"/><path fill="#e6e5e5" d="M161.28 5.73h47.365v5.728H161.28z"/><path d="M208.64 5.73H256v5.728h-47.36zm-55.928 9.168h4.579v4.581h-4.579zm-7.319 0h4.581v4.581h-4.581zm216.636 0h4.578v4.581h-4.578zm-7.333 0h4.588v4.581h-4.588z" fill="#cccbca"/><path fill="#ffc86d" d="M152.712 106.556h206.577v79.255H152.712z"/><path d="M162.897 146.191l5.361 5.359v-10.721zm186.2 0l-5.361 5.359v-10.721z" fill="#fff"/><path fill="#474f59" d="M237.252 122.248h54.558v5.298h-54.558z"/><path d="M237.252 131.328h91.226v1.47h-91.226zm0 5.406h91.226v1.467h-91.226zm.105 5.391h91.121v1.47h-91.121zm0 5.406h75.445v1.473h-75.445zm-54.061-25.283h47.889v47.892h-47.889z" fill="#fff"/><path fill="#cccbca" d="M229.572 273.739h52.841v33.024h-52.841z"/><path fill="#474f59" d="M229.572 306.763h52.841v6.054h-52.841z"/><path fill="#fff" d="M252.416 286.121l7.163 4.135-7.163 4.135z"/><path d="M296.267 273.739h26.418v3.415h-26.418zm0 6.445h52.841v1.467h-52.841zm0 4.503h52.841v1.47h-52.841zm0 4.503h52.841v1.47h-52.841zm0 4.502h52.841v1.467h-52.841zm13.192 4.503h26.421v1.468h-26.421z" fill="#cccbca"/><path fill="#474f59" d="M296.267 306.763h39.721v6.054h-39.721z"/><path fill="#ffc86d" d="M335.977 306.763h13.118v6.054h-13.118z"/><path d="M162.891 297.848h52.841v1.468h-52.841zm0 4.503h52.841v1.467h-52.841zm0 4.503h52.841v1.474h-52.841zm0 4.502h33.569v1.47h-33.569zm26.127-37.617h26.725v3.415h-26.725zm0 6.445h26.725v1.467h-26.725zm0 4.503h16.194v1.471h-16.194z" fill="#cccbca"/><path d="M162.891 273.739h20.863v19.757h-20.863zM199.8 73.198h12.954v12.957H199.8z" fill="#f68360"/><path d="M195.659 90.07h21.233v.745h-21.233zm0 2.466h21.233v.745h-21.233zm5.165 2.47h10.897v.745h-10.897z" fill="#474f59"/><path fill="#f68360" d="M232.945 73.198h12.952v12.957h-12.952z"/><path d="M228.804 90.07h21.218v.745h-21.218zm0 2.466h21.218v.745h-21.218zm5.18 2.47h10.894v.745h-10.894z" fill="#474f59"/><path fill="#f68360" d="M266.104 73.198h12.949v12.957h-12.949z"/><path d="M261.963 90.07h21.233v.745h-21.233zm0 2.466h21.233v.745h-21.233zm5.165 2.47h10.895v.745h-10.895z" fill="#474f59"/><path fill="#f68360" d="M299.249 73.198h12.949v12.957h-12.949z"/><path d="M295.108 90.07h21.233v.745h-21.233zm0 2.466h21.233v.745h-21.233zm5.165 2.47h10.897v.745h-10.897zM162.891 240.188h52.841v4.376h-52.841z" fill="#474f59"/><path d="M162.891 248.907h52.841v1.465h-52.841zm0 4.819h52.841v1.464h-52.841zm14.607 4.819h23.624v1.465h-23.624z" fill="#cccbca"/><path fill="#ffc86d" d="M162.891 199.56h52.841v32.242h-52.841z"/><path fill="#474f59" d="M229.572 240.188h52.841v4.376h-52.841z"/><path d="M229.572 248.907h52.841v1.465h-52.841zm0 4.819h52.841v1.464h-52.841zm14.622 4.819h23.621v1.465h-23.621z" fill="#cccbca"/><path fill="#ffc86d" d="M229.572 199.56h52.841v32.242h-52.841z"/><path fill="#474f59" d="M296.267 240.188h52.841v4.376h-52.841z"/><path d="M296.267 248.907h52.841v1.465h-52.841zm0 4.819h52.841v1.464h-52.841zm14.607 4.819h23.624v1.465h-23.624z" fill="#cccbca"/><path fill="#f68360" d="M296.267 199.56h52.841v32.242h-52.841z"/><path fill="#ffc86d" d="M162.891 48.057h163.735v14.325H162.891z"/><path fill="#fff" d="M270.291 51.878h52.518v6.683h-52.518z"/><path fill="#474f59" d="M326.626 48.057h22.469v14.325h-22.469z"/><path d="M167.499 54.347h14.572v1.747h-14.572zm19.185 0h14.572v1.747h-14.572zm19.2 0h14.574v1.747h-14.574zm19.185 0h14.571v1.747h-14.571z" fill="#fff"/><path fill="#f68360" d="M141.417 22.917h229.165v14.325H141.417z"/><path d="M152.712 29.056h49.318v2.046h-49.318zm71.755 0h13.613v2.046h-13.613zm17.92 0H256v2.046h-13.613zm52.917-1.366h22.469v4.775h-22.469zm25.901 0h22.469v4.775h-22.469z" fill="#fff"/><path fill="#474f59" d="M347.091 27.69h12.196v4.775h-12.196z"/></svg>