<svg height="512pt" viewBox="0 0 512 512" width="512pt" xmlns="http://www.w3.org/2000/svg"><path d="M503.668 320.988C474.902 430.898 374.93 512 256 512 114.95 512-.04 396.977 0 255.93.04 114.578 114.64 0 256 0c141.387 0 256 114.613 256 256a258.54 258.54 0 0 1-2.652 36.875 5.68 5.68 0 0 0-5.68 5.68zm0 0" fill="#3691bb"/><path d="M235 422h60c8.285 0 15 6.715 15 15s-6.715 15-15 15h-60c-8.285 0-15-6.715-15-15s6.715-15 15-15zM130 72c0 5.523-4.477 10-10 10h-15c-8.285 0-15 6.715-15 15s6.715 15 15 15h120c8.285 0 15-6.715 15-15s-6.715-15-15-15h-65c-5.523 0-10-4.477-10-10s4.477-10 10-10h35c8.285 0 15-6.715 15-15s-6.715-15-15-15h-62.996a256.67 256.67 0 0 0-43.031 30H120c5.523 0 10 4.477 10 10zm10 315c0 8.285 6.715 15 15 15h100c8.285 0 15-6.715 15-15s-6.715-15-15-15H155c-8.285 0-15 6.715-15 15zm175-215h70c8.285 0 15-6.715 15-15s-6.715-15-15-15h-70c-8.285 0-15 6.715-15 15s6.715 15 15 15zm80-50h79.156a256.68 256.68 0 0 0-21.594-30H395c-8.285 0-15 6.715-15 15s6.715 15 15 15zm-80-90h64.996a254.316 254.316 0 0 0-73.863-27.078C302.422 7.652 300 12.039 300 17c0 8.285 6.715 15 15 15zM190 337c0-8.285-6.715-15-15-15H8.605a254.437 254.437 0 0 0 10.024 30H175c8.285 0 15-6.715 15-15zM75 202h70c8.285 0 15-6.715 15-15s-6.715-15-15-15H75c-8.285 0-15 6.715-15 15s6.715 15 15 15zm85.957 291.766C190.344 505.52 222.414 512 256 512c41.969 0 81.578-10.098 116.531-28H175c-6.441 0-11.914 4.066-14.043 9.766zM494.187 162h-48.765c-8.074 0-15.027 6.207-15.406 14.273C429.609 184.891 436.476 192 445 192h10c8.285 0 15 6.715 15 15s6.715 15 15 15h24.75c-2.777-20.898-8.059-41.008-15.563-60zM455 362H335c-8.285 0-15 6.715-15 15s6.715 15 15 15h45c5.523 0 10 4.477 10 10s-4.477 10-10 10h-15c-8.285 0-15 6.715-15 15s6.715 15 15 15h66.883a257.59 257.59 0 0 0 27.09-30H420c-5.523 0-10-4.477-10-10s4.477-10 10-10h35c8.285 0 15-6.715 15-15s-6.715-15-15-15zM40 237c0-8.285-6.715-15-15-15H2.254A257.472 257.472 0 0 0 .05 252H25c8.285 0 15-6.715 15-15zm105 205H80.117a257.09 257.09 0 0 0 38.43 30H145c8.285 0 15-6.715 15-15s-6.715-15-15-15zm0 0" fill="#0680ae"/><path d="M368.871 318.652l-2.586 9.657c-2.86 10.671-13.828 17.004-24.496 14.144L177.48 298.426c-10.671-2.86-17.003-13.828-14.144-24.496l2.59-9.66c2.86-10.668 13.824-17 24.496-14.141l164.308 44.027c10.668 2.86 17 13.824 14.141 24.496zm0 0" fill="#b4d2d7"/><path d="M7.383 154.36l259.601 89.898-20.718 60.496L9.203 178.625C1.57 174.563-1.91 165.5 1.051 157.371a4.995 4.995 0 0 1 6.332-3.012zm283.972 96.43l-12.3 62.75 224.523 7.78a254.294 254.294 0 0 0 5.781-28.554zm0 0" fill="#e1ebf0"/><path d="M133.773 269.438c-5 18.667-24.191 29.75-42.863 24.746-18.672-5-29.754-24.196-24.75-42.864 5.004-18.672 24.195-29.754 42.867-24.75 18.672 5.004 29.75 24.196 24.746 42.867zm303.223 45.011c-18.672-5.004-37.863 6.078-42.863 24.75-5.004 18.672 6.074 37.863 24.746 42.867 18.672 5 37.863-6.078 42.867-24.75s-6.078-37.863-24.75-42.867zm0 0" fill="#b4d2d7"/><path d="M133.773 269.438c-4.46 16.652-20.207 27.253-36.808 25.804-15.098-7.047-23.434-24.101-18.973-40.754 4.461-16.652 20.211-27.254 36.809-25.804 15.101 7.043 23.437 24.101 18.972 40.754zm309 47.125c-16.597-1.45-32.347 9.156-36.808 25.804-4.461 16.653 3.875 33.711 18.972 40.758 16.602 1.445 32.348-9.156 36.81-25.809 4.46-16.652-3.876-33.707-18.974-40.753zm0 0" fill="#e1ebf0"/><path d="M106.762 235.023c-14.004-3.753-28.399 4.555-32.149 18.563-3.754 14 4.559 28.394 18.563 32.148 14 3.75 28.394-4.558 32.148-18.562 3.75-14.004-4.558-28.399-18.562-32.149zm1.66 27.622c-1.254 4.667-6.05 7.437-10.719 6.183a8.749 8.749 0 0 1-6.187-10.715c1.254-4.668 6.05-7.437 10.718-6.187s7.438 6.05 6.188 10.719zm326.312 60.257c-14.004-3.754-28.398 4.559-32.152 18.563-3.75 14.004 4.559 28.394 18.563 32.148 14.003 3.754 28.398-4.558 32.152-18.562 3.75-14.004-4.563-28.399-18.563-32.149zm1.657 27.621a8.749 8.749 0 0 1-10.715 6.188 8.75 8.75 0 1 1 4.527-16.906 8.754 8.754 0 0 1 6.188 10.718zm0 0" fill="#87a0af"/><path d="M434.648 208.121a15.838 15.838 0 0 1-16.55 12.45l-105.395-7.157-2.601 15.27-48.297-12.942 5.566-14.433-95.035-46.59c-7.059-3.461-10.512-11.57-8.113-19.055a4.999 4.999 0 0 1 6.472-3.172l108.047 39.324 33.766-87.55a11.046 11.046 0 0 1 13.168-6.696 11.049 11.049 0 0 1 8.035 12.528l-15.703 92.183 112.62 19.86a4.996 4.996 0 0 1 4.02 5.98zm0 0" fill="#e1ebf0"/><path d="M275.969 345.945l-11.516 1.004a33.704 33.704 0 0 1-22.25-5.96l-9.469-6.63c-27.093-18.957-39.43-52.84-30.87-84.78l7.257-27.099c10.598-39.55 51.254-63.027 90.809-52.425 39.554 10.597 63.027 51.254 52.43 90.804l-7.262 27.098c-8.559 31.941-36.184 55.113-69.13 57.988zm0 0" fill="#b4d2d7"/><path d="M264.453 346.95a33.704 33.704 0 0 1-22.25-5.962l-1.187-.832c-15.32-21.758-20.36-51.988-12.477-81.398l8.535-31.86c7.301-27.242 24.797-48.511 45.988-59.328 5.586.18 11.235.977 16.868 2.485 39.55 10.597 63.027 51.254 52.425 90.808l-7.257 27.094c-8.559 31.941-36.184 55.117-69.13 57.988zm0 0" fill="#e1ebf0"/><path d="M250.168 255.313c.531.144.848.69.707 1.226l-7.836 29.242a.994.994 0 0 1-.988.735 80.876 80.876 0 0 0-18.383 1.609 2.299 2.299 0 0 1-2.223-2.895l4.227-15.777c2.86-10.668 13.828-17 24.496-14.14zm3.035 31.171a.994.994 0 0 0 .867 1.25c.79.079 1.582.106 2.344.313l17.742 4.754a78.432 78.432 0 0 1 6.719 2.125.996.996 0 0 0 1.305-.676l7.332-27.36a1.005 1.005 0 0 0-.707-1.226l-27.047-7.246a1.004 1.004 0 0 0-1.227.707zm47.192-17.71a.995.995 0 0 0-1.223.706l-7.836 29.243a.989.989 0 0 0 .484 1.129 80.657 80.657 0 0 1 15.118 10.585h1.234c.969 0 1.969-.765 2.219-1.703l4.148-15.468c2.856-10.668-3.476-21.637-14.144-24.493zm0 0" fill="#025f80"/></svg>